<?xml version="1.0" encoding="UTF-8" standalone="no"?>
<svg
   xmlns:dc="http://purl.org/dc/elements/1.1/"
   xmlns:cc="http://creativecommons.org/ns#"
   xmlns:rdf="http://www.w3.org/1999/02/22-rdf-syntax-ns#"
   xmlns:svg="http://www.w3.org/2000/svg"
   xmlns="http://www.w3.org/2000/svg"
   xmlns:sodipodi="http://sodipodi.sourceforge.net/DTD/sodipodi-0.dtd"
   xmlns:inkscape="http://www.inkscape.org/namespaces/inkscape"
   version="1.1"
   x="0px"
   y="0px"
   viewBox="0 0 100 125"
   enable-background="new 0 0 100 100"
   xml:space="preserve"
   id="svg10"
   sodipodi:docname="coloured-gordian-knot.svg"
   inkscape:version="1.0.1 (3bc2e813f5, 2020-09-07)"><metadata
     id="metadata16"><rdf:RDF><cc:Work
         rdf:about=""><dc:format>image/svg+xml</dc:format><dc:type
           rdf:resource="http://purl.org/dc/dcmitype/StillImage" /><dc:title></dc:title></cc:Work></rdf:RDF></metadata><defs
     id="defs14" /><sodipodi:namedview
     pagecolor="#ffffff"
     bordercolor="#666666"
     borderopacity="1"
     objecttolerance="10"
     gridtolerance="10"
     guidetolerance="10"
     inkscape:pageopacity="0"
     inkscape:pageshadow="2"
     inkscape:window-width="1920"
     inkscape:window-height="1013"
     id="namedview12"
     showgrid="false"
     inkscape:zoom="5.88"
     inkscape:cx="50"
     inkscape:cy="46.73955"
     inkscape:window-x="-9"
     inkscape:window-y="-9"
     inkscape:window-maximized="1"
     inkscape:current-layer="svg10" /><path
     d="M 15.928,73.566 C 9.115,61.501 30.937,40.989 60.005,51.191 c 0,0 1.539,-4.012 1.863,-9.871 0,0 -27.798,-8.057 -46.262,7.22 -12.451,10.302 -14.094,26.194 -3.775,35.508 8.382,7.573 23.186,7.118 37.234,-2.021 -3.193,-2.357 -5.038,-3.835 -7.773,-6.902 0,0 -18.551,10.512 -25.364,-1.559 z"
     id="path846"
     style="fill:#21908c;fill-opacity:1;stroke:#000000" /><path
     d="m 54.544,19.978 c 9.575,-1.878 15.133,31.985 -1.81,46.474 0,0 3.353,4.134 8.19,6.184 0,0 14.448,-13.367 12.237,-38.412 C 70.952,9.177 55.059,8.901 48.486,11.827 41.91,14.75 32.309,23.734 30.001,39.181 c 3.905,-1.387 5.769,-1.703 11.078,-2.045 0,0 3.073,-15.12 13.465,-17.158 z"
     id="path844"
     style="fill:#fde725;stroke:#000000;fill-opacity:1" /><path
     d="m 74.903,46.963 c -0.491,4.375 -1.421,7.16 -2.629,10.293 0,0 10.467,6.168 12.09,14.122 1.289,6.319 -6.156,11.199 -19.03,5.778 -13.485,-5.677 -22.44,-15.445 -24.757,-26.545 -7.454,0.449 -9.954,2.906 -9.954,2.906 0,0 6.121,21.886 31.476,33.391 24.716,11.216 50.754,-13.174 12.804,-39.945 z"
     id="path2"
     style="fill:#440154;fill-opacity:1;stroke:#000000" /></svg>
