<?xml version="1.0" encoding="UTF-8" standalone="no"?>
<svg
   xmlns:dc="http://purl.org/dc/elements/1.1/"
   xmlns:cc="http://creativecommons.org/ns#"
   xmlns:rdf="http://www.w3.org/1999/02/22-rdf-syntax-ns#"
   xmlns:svg="http://www.w3.org/2000/svg"
   xmlns="http://www.w3.org/2000/svg"
   xmlns:sodipodi="http://sodipodi.sourceforge.net/DTD/sodipodi-0.dtd"
   xmlns:inkscape="http://www.inkscape.org/namespaces/inkscape"
   version="1.1"
   x="0px"
   y="0px"
   viewBox="0 0 436.40408 436.40408"
   enable-background="new 0 0 100 100"
   xml:space="preserve"
   id="svg10"
   sodipodi:docname="mdmcda-hex-logo.svg"
   inkscape:version="1.0.1 (3bc2e813f5, 2020-09-07)"
   width="436.40408"
   height="436.40408"
   inkscape:export-filename="B:\Data\R\mdmcda\img\hex-logo.png"
   inkscape:export-xdpi="175.98"
   inkscape:export-ydpi="175.98"><metadata
     id="metadata16"><rdf:RDF><cc:Work
         rdf:about=""><dc:format>image/svg+xml</dc:format><dc:type
           rdf:resource="http://purl.org/dc/dcmitype/StillImage" /><dc:title></dc:title></cc:Work></rdf:RDF></metadata><defs
     id="defs14" /><sodipodi:namedview
     pagecolor="#ffffff"
     bordercolor="#666666"
     borderopacity="1"
     objecttolerance="10"
     gridtolerance="10"
     guidetolerance="10"
     inkscape:pageopacity="0"
     inkscape:pageshadow="2"
     inkscape:window-width="1920"
     inkscape:window-height="1013"
     id="namedview12"
     showgrid="false"
     inkscape:zoom="1.47"
     inkscape:cx="262.99078"
     inkscape:cy="194.4846"
     inkscape:window-x="-9"
     inkscape:window-y="-9"
     inkscape:window-maximized="1"
     inkscape:current-layer="svg10"
     inkscape:snap-bbox="true"
     inkscape:bbox-paths="true"
     inkscape:bbox-nodes="true"
     inkscape:snap-bbox-edge-midpoints="true"
     fit-margin-top="0"
     fit-margin-left="0"
     fit-margin-right="0"
     fit-margin-bottom="0"
     inkscape:snap-global="false" /><rect
     style="color:#000000;clip-rule:nonzero;display:inline;overflow:visible;visibility:visible;opacity:1;isolation:auto;mix-blend-mode:normal;color-interpolation:sRGB;color-interpolation-filters:linearRGB;solid-color:#000000;solid-opacity:1;fill:#ffffff;fill-opacity:0;fill-rule:nonzero;stroke:none;stroke-width:196.326;stroke-linecap:square;stroke-linejoin:miter;stroke-miterlimit:4;stroke-dasharray:none;stroke-dashoffset:0;stroke-opacity:1;color-rendering:auto;image-rendering:auto;shape-rendering:auto;text-rendering:auto;enable-background:accumulate"
     id="rect827"
     width="436.40408"
     height="436.40408"
     x="0"
     y="0" /><path
     id="rect885"
     style="color:#000000;overflow:visible;fill:#cccccc;fill-opacity:1;stroke:none;stroke-width:0.00106106;stop-color:#000000"
     d="M 217.75784,4.8698761 33.518607,111.24128 l -0.02907,212.7884 184.284823,106.39835 184.26616,-106.41907 0.002,-212.74281 z" /><g
     id="g871"
     transform="matrix(2.8379208,0,0,2.8379208,77.562449,29.622571)"><path
       d="M 15.928,73.566 C 9.115,61.501 30.937,40.989 60.005,51.191 c 0,0 1.539,-4.012 1.863,-9.871 0,0 -27.798,-8.057 -46.262,7.22 -12.451,10.302 -14.094,26.194 -3.775,35.508 8.382,7.573 23.186,7.118 37.234,-2.021 -3.193,-2.357 -5.038,-3.835 -7.773,-6.902 0,0 -18.551,10.512 -25.364,-1.559 z"
       id="path846"
       style="fill:#21908c;fill-opacity:1;stroke:#000000" /><path
       d="m 54.544,19.978 c 9.575,-1.878 15.133,31.985 -1.81,46.474 0,0 3.353,4.134 8.19,6.184 0,0 14.448,-13.367 12.237,-38.412 C 70.952,9.177 55.059,8.901 48.486,11.827 41.91,14.75 32.309,23.734 30.001,39.181 c 3.905,-1.387 5.769,-1.703 11.078,-2.045 0,0 3.073,-15.12 13.465,-17.158 z"
       id="path844"
       style="fill:#fde725;fill-opacity:1;stroke:#000000" /><path
       d="m 74.903,46.963 c -0.491,4.375 -1.421,7.16 -2.629,10.293 0,0 10.467,6.168 12.09,14.122 1.289,6.319 -6.156,11.199 -19.03,5.778 -13.485,-5.677 -22.44,-15.445 -24.757,-26.545 -7.454,0.449 -9.954,2.906 -9.954,2.906 0,0 6.121,21.886 31.476,33.391 24.716,11.216 50.754,-13.174 12.804,-39.945 z"
       id="path2"
       style="fill:#440154;fill-opacity:1;stroke:#000000" /></g><path
     class="cls-3"
     d="m 233.25318,427.11868 142.67486,-82.3671 30.98751,-17.92769 0.004,-35.75536 -0.004,-164.74362 0.004,-17.37119 L 218.20688,2.3046875e-6 203.1666,8.6919223 58.703431,92.102169 29.504124,108.98673 l -0.0196,33.72957 0.0196,166.76934 -0.005,17.37128 188.713226,108.95365 z M 44.095084,317.90828 44.121584,117.36477 217.75836,17.114502 391.43862,117.38882 l -0.001,200.49898 v 0 L 217.77446,418.18263 Z"
     id="path1094"
     inkscape:connector-curvature="0"
     style="display:inline;isolation:isolate;fill:#000000;fill-opacity:1;stroke:none;stroke-width:0.513914;stroke-miterlimit:4;stroke-dasharray:none;stroke-opacity:0.572549" /><text
     xml:space="preserve"
     style="font-style:normal;font-variant:normal;font-weight:900;font-stretch:normal;font-size:46.66666667px;line-height:52.2667px;font-family:Nunito;-inkscape-font-specification:'Nunito Heavy';text-align:center;letter-spacing:0px;word-spacing:0px;text-anchor:middle;fill:none;stroke:#000000;stroke-width:1px;stroke-linecap:butt;stroke-linejoin:miter;stroke-opacity:1;"
     x="216.78871"
     y="339.80951"
     id="text881"><tspan
       sodipodi:role="line"
       id="tspan879"
       x="216.78871"
       y="339.80951"
       style="font-style:normal;font-variant:normal;font-weight:900;font-stretch:normal;font-family:Nunito;-inkscape-font-specification:'Nunito Heavy';text-align:center;text-anchor:middle;fill:#000000;stroke:none;font-size:46.66666667px;">MDMCDA</tspan></text></svg>
